PathFileType	4	(X/Y/Z)	DARI_DATA/Captury_Subj7_bilateral_squat01.trc
DataRate	CameraRate	NumFrames	NumMarkers	Units	OrigDataRate	OrigDataStartFrame	OrigNumFrames
60	60	4	47	mm	60.00239944458008	45	357
Frame#	Time		LeftUpLeg_		RightUpLeg_		LeftLeg_		RightLeg_		LeftFoot_		RightFoot_		LeftToeBase_		RightToeBase_		Knee_Lateral_r		Knee_Lateral_l		Ankle_Lateral_r		Ankle_Lateral_l		LeftArm_		LeftForeArm_		LeftHand_		LeftHandEE		RightArm_		RightForeArm_		RightHand_		RightHandEE		Spine_		Spine1_		Spine2_		Spine3_		Spine4_		Spine5_		Spine_x		Spine_y		Spine_z		RASI		LASI		RIPS		LIPS		RTHI		LTHI		RTIB		LTIB		RTOE		LTOE		RHEE		LHEE		RHipAngles		LHipAngles		RKneeAngles		LKneeAngles		RAnkleAngles		LAnkleAngles
			X1	Y1	Z1	X2	Y2	Z2	X3	Y3	Z3	X4	Y4	Z4	X5	Y5	Z5	X6	Y6	Z6	X7	Y7	Z7	X8	Y8	Z8	X9	Y9	Z9	X10	Y10	Z10	X11	Y11	Z11	X12	Y12	Z12	X13	Y13	Z13	X14	Y14	Z14	X15	Y15	Z15	X16	Y16	Z16	X17	Y17	Z17	X18	Y18	Z18	X19	Y19	Z19	X20	Y20	Z20	X21	Y21	Z21	X22	Y22	Z22	X23	Y23	Z23	X24	Y24	Z24	X25	Y25	Z25	X26	Y26	Z26	X27	Y27	Z27	X28	Y28	Z28	X29	Y29	Z29	X30	Y30	Z30	X31	Y31	Z31	X32	Y32	Z32	X33	Y33	Z33	X34	Y34	Z34	X35	Y35	Z35	X36	Y36	Z36	X37	Y37	Z37	X38	Y38	Z38	X39	Y39	Z39	X40	Y40	Z40	X41	Y41	Z41	X42	Y42	Z42	X43	Y43	Z43	X44	Y44	Z44	X45	Y45	Z45	X46	Y46	Z46	X47	Y47	Z47

45	0.73333	-131.66241	899.02789	25.21734	44.24393	900.32983	23.48437	-219.80792	480.93677	6.86472	127.45625	480.95984	12.94131	-287.31094	92.72443	30.25523	194.97232	93.39456	45.30404	-300.16333	30.43652	-90.96059	202.65573	32.42982	-77.01727	175.69563	487.83084	18.89172	-267.86911	488.20990	13.71168	240.71136	101.47662	70.55916	-332.59302	100.86679	56.30204	-178.49867	1409.15955	-21.63125	-302.54163	1420.04272	-297.80814	-350.71725	1451.91077	-549.85773	-350.65836	1471.68298	-642.13324	95.04790	1399.00439	-21.23473	192.42578	1410.07751	-307.89432	216.05309	1444.78491	-563.04651	222.47847	1463.20532	-655.37811	-44.25980	996.21692	40.99311	-44.67124	1097.49500	21.96445	-44.28354	1171.74475	32.91182	-43.45483	1261.15967	66.89336	-41.01073	1400.71191	60.32132	-0.00000	0.00000	-0.00000	4.88703	996.58069	40.50893	-44.63712	1045.34644	39.60382	-43.78611	997.60980	90.12164	102.27025	964.48755	-77.53435	-192.61073	962.30499	-74.62929	-4.43174	967.86597	70.91646	-83.06667	967.28394	71.69114	149.60995	716.77484	29.99762	-239.00494	716.55298	29.37960	198.52286	311.93130	17.15054	-298.66235	253.54045	5.82585	208.18378	13.66656	-151.67090	-306.45822	13.60655	-166.01331	187.35928	30.09145	100.68764	-288.30664	30.20154	87.02215	-3.44196	7.86217	7.33423	-4.87799	9.35407	7.02327	-0.43384	-0.77656	-0.07326	-0.28548	-1.38769	-0.07849	6.93438	-2.97337	-9.61598	8.92245	-4.32207	-2.30713
46	0.75000	-131.66341	899.03827	25.13178	44.24661	900.26410	23.74859	-219.79675	480.94684	6.72835	127.58965	480.92807	12.89525	-287.25909	92.73398	30.22626	194.86568	93.31601	45.19620	-300.00357	30.25256	-90.90132	202.91783	32.52540	-77.18806	175.81689	487.80551	18.93593	-267.87106	488.22479	13.47743	240.57295	101.34904	70.52440	-332.59198	100.90298	56.17622	-178.49794	1408.99573	-21.53664	-302.61084	1419.76636	-297.68652	-350.50098	1451.64978	-549.78857	-350.97864	1471.68933	-642.00519	95.14725	1398.81750	-21.15574	192.89113	1410.13904	-307.68100	216.43420	1444.82568	-562.84375	221.97728	1461.67700	-655.53149	-44.24902	996.16498	41.22230	-44.58080	1097.43066	22.21593	-44.17651	1171.66895	33.12561	-43.33863	1261.10876	66.99612	-40.86578	1400.63208	60.18328	-0.00000	0.00000	-0.00000	4.89883	996.50751	40.83585	-44.60177	1045.29663	39.90402	-43.87191	997.48596	90.35365	102.50111	964.54315	-77.06136	-192.38600	962.48816	-74.74266	-4.49282	967.75256	71.18292	-83.12938	967.20459	71.80124	149.65065	716.73035	30.24443	-239.02475	716.57086	29.13472	198.56625	311.86261	17.13939	-298.59827	253.53227	5.67497	208.68478	13.94788	-151.87009	-306.20282	13.39684	-165.95622	187.04401	29.93609	100.46275	-288.40152	30.30925	87.09834	-3.42515	7.90266	7.31785	-4.77443	9.33266	7.02445	-0.47460	-0.81574	-0.09143	-0.30588	-1.40120	-0.07966	6.88767	-2.86889	-9.63147	8.98362	-4.28998	-2.22919
47	0.76667	-131.67142	898.95435	24.98064	44.24096	900.04126	23.79688	-219.79688	480.86310	6.53694	127.59571	480.71246	12.75559	-287.24707	92.65573	30.15957	194.89130	93.11417	45.18069	-299.38287	29.97017	-90.92503	203.01213	32.44067	-77.25713	175.82346	487.58884	18.79357	-267.90692	488.15939	13.00578	240.61237	101.13466	70.48796	-332.72189	100.84941	55.85211	-178.44623	1408.56763	-21.26690	-302.41721	1419.49780	-297.47430	-350.12650	1451.53882	-549.59070	-351.27072	1471.57751	-641.80164	95.15240	1398.54614	-21.25646	193.19743	1409.90564	-307.67734	216.97966	1444.63574	-562.81195	221.83260	1460.95435	-655.63367	-44.19759	995.98895	41.30238	-44.45026	1097.29358	22.31812	-44.04144	1171.57153	33.19427	-43.24778	1261.08521	66.96346	-40.82729	1400.63293	59.92863	-0.00000	0.00000	-0.00000	4.95092	996.29260	40.97165	-44.50959	1045.12256	40.05098	-43.87470	997.24243	90.43590	102.66022	964.41150	-76.85942	-192.23087	962.58948	-74.87502	-4.49784	967.50378	71.26874	-83.13547	967.01788	71.79791	149.65143	716.50806	30.20243	-239.09634	716.51587	28.57577	198.57648	311.64966	17.03539	-298.51038	253.41878	5.34399	208.83495	14.04849	-151.98067	-305.18338	13.08748	-166.00574	187.00829	29.68281	100.37949	-288.73856	30.33189	87.13412	-3.37695	7.94786	7.24496	-4.62565	9.28632	6.76797	-0.51840	-0.81153	-0.11671	-0.32177	-1.43282	-0.06644	6.81907	-2.79716	-9.66796	9.00853	-4.28360	-2.16615
48	0.78333	-131.80138	898.98499	24.74203	44.11196	899.88519	23.54193	-219.87686	480.88531	6.25150	127.59975	480.58127	12.56195	-287.25632	92.67914	30.09410	194.76509	92.98102	45.23285	-299.49423	29.94316	-90.95412	203.28235	32.42482	-77.23613	175.80411	487.46497	18.77584	-267.98596	488.17410	12.73584	240.40312	100.98102	70.69601	-332.71655	100.87745	55.81095	-178.60542	1408.39331	-21.15377	-302.40131	1419.39270	-297.43689	-349.85208	1451.35010	-549.61261	-351.42383	1471.68860	-641.75159	95.17091	1398.34753	-21.52164	193.56207	1409.69031	-307.82443	217.55470	1444.22705	-562.96570	222.18037	1460.92639	-655.73126	-44.22244	995.91193	41.14000	-44.38684	1097.16882	22.17535	-43.92224	1171.39709	33.03451	-43.05192	1260.87927	66.74609	-40.64360	1400.36926	59.58269	-0.00000	0.00000	-0.00000	4.92634	996.16345	40.80470	-44.48212	1045.04700	39.93158	-43.89343	997.12207	90.27457	102.59009	964.28107	-77.06381	-192.30261	962.77203	-75.05203	-4.55020	967.35822	71.07755	-83.18825	966.95581	71.61402	149.54015	716.37183	30.22017	-239.20105	716.53162	28.33712	198.55676	311.51495	17.08951	-298.55817	253.42914	5.21157	209.35757	14.16792	-151.97278	-305.34122	13.12362	-166.04541	186.67387	29.49821	100.34230	-288.74423	30.38254	87.09853	-3.36790	8.02941	7.45199	-4.57709	9.21812	6.78328	-0.55326	-0.82321	-0.13252	-0.36019	-1.42803	-0.05388	6.76197	-2.79095	-9.69155	9.00671	-4.28055	-2.13041
